<svg width="0" height="0" class="hidden">
  <symbol viewBox="0 0 12 12" fill="none" xmlns="http://www.w3.org/2000/svg" id="i-arrow">
    <path d="M11.84 2.887a.545.545 0 0 0-.771 0L6 7.956.931 2.887a.545.545 0 1 0-.771.771l5.454 5.455a.545.545 0 0 0 .772 0l5.454-5.455a.545.545 0 0 0 0-.771z" fill="#333"></path>
  </symbol>
  <symbol viewBox="0 0 14 14" fill="none" xmlns="http://www.w3.org/2000/svg" id="i-arrow-2">
    <g clip-path="url(#clip0)">
      <path d="M.787 5.902l-.022.005h9.368L7.188 2.955a.766.766 0 0 1-.223-.544.77.77 0 0 1 .223-.543l.458-.458a.76.76 0 0 1 .541-.224.76.76 0 0 1 .541.223l5.049 5.048a.758.758 0 0 1 .223.542.758.758 0 0 1-.223.544L8.728 12.59a.76.76 0 0 1-.54.223.76.76 0 0 1-.542-.223l-.458-.458a.758.758 0 0 1 0-1.072l2.978-2.968H.776A.793.793 0 0 1 0 7.308v-.649c0-.422.365-.757.787-.757z"
        fill="#002197"></path>
    </g>
    <defs>
      <clipPath id="clip0">
        <path transform="matrix(-1 0 0 1 14 0)" fill="#fff" d="M0 0h14v14H0z"></path>
      </clipPath>
    </defs>
  </symbol>
  <symbol viewBox="0 0 20 20" fill="none" xmlns="http://www.w3.org/2000/svg" id="i-calendar">
    <g clip-path="url(#clip0)" fill="#9E9E9E">
      <path d="M16.852 10.592v-8.72h-3.617V.21h-.849v1.662H8.855V.21h-.853v1.662H4.47V.21h-.853v1.662H0v14.513h10.908c.564 1.96 2.352 3.405 4.454 3.405 2.552 0 4.638-2.127 4.638-4.724a4.728 4.728 0 0 0-3.148-4.474zM.853 2.72h2.764v1.83h.85V2.72h3.535v1.83h.849V2.72h3.531v1.83h.85V2.72h2.771v3.916H.853V2.721zm9.9 12.815h-9.9V7.489h15.15v2.899a4.674 4.674 0 0 0-.637-.045c-2.551 0-4.637 2.127-4.637 4.723 0 .16.008.315.024.47zm4.613 3.4c-2.086 0-3.788-1.743-3.788-3.874 0-2.127 1.702-3.874 3.788-3.874 2.087 0 3.789 1.743 3.789 3.874 0 2.131-1.707 3.874-3.789 3.874z"></path>
      <path d="M14.938 14.47h-1.364v.85h2.217v-3.348h-.853v2.498z"></path>
    </g>
    <defs>
      <clipPath id="clip0">
        <path fill="#fff" d="M0 0h20v20H0z"></path>
      </clipPath>
    </defs>
  </symbol>
  <symbol viewBox="0 0 16 16" fill="none" xmlns="http://www.w3.org/2000/svg" id="i-comments">
    <path d="M2.667 6.79h3.466a.267.267 0 1 0 0-.533H2.667a.267.267 0 1 0 0 .534zM9.6 7.857H2.667a.267.267 0 1 0 0 .534H9.6a.267.267 0 1 0 0-.534zm0 1.6H2.667a.267.267 0 1 0 0 .534H9.6a.267.267 0 1 0 0-.534z" fill="#9E9E9E"></path>
    <path d="M14.42.676L5.314.657c-.872 0-1.582.71-1.582 1.582v1.366l-2.152.004C.71 3.61 0 4.32 0 5.191v5.637c0 .872.71 1.582 1.581 1.582H3.2v2.666a.267.267 0 0 0 .464.18l2.588-2.847 4.433-.018c.872 0 1.582-.71 1.582-1.581v-.03l1.402 1.543a.267.267 0 0 0 .464-.18V9.476h.286c.872 0 1.581-.709 1.581-1.58v-5.64c0-.872-.71-1.58-1.58-1.581zm-2.687 10.133a1.05 1.05 0 0 1-1.049 1.048l-4.552.019a.267.267 0 0 0-.196.087l-2.203 2.423v-2.243a.267.267 0 0 0-.266-.267H1.58a1.05 1.05 0 0 1-1.048-1.048V5.191c0-.578.47-1.048 1.049-1.048L4 4.137l6.685-.013c.578 0 1.048.47 1.048 1.048v5.637zm3.734-2.914c0 .578-.47 1.048-1.048 1.048h-.552a.267.267 0 0 0-.267.266v2.244l-1.333-1.467V5.172c0-.872-.71-1.581-1.582-1.581l-6.418.013V2.238c0-.578.47-1.048 1.047-1.048l9.104.019c.579 0 1.049.47 1.049 1.048v5.638z"
      fill="#9E9E9E"></path>
  </symbol>
  <symbol viewBox="0 0 40 40" fill="none" xmlns="http://www.w3.org/2000/svg" id="i-download">
    <g clip-path="url(#clip0)" fill="#000">
      <path d="M39.333 37.667H.667A.666.666 0 0 1 0 37V25.667C0 25.298.299 25 .667 25H14a.667.667 0 1 1 0 1.333H1.333v10h37.334v-10H26A.666.666 0 1 1 26 25h13.333c.368 0 .667.298.667.667V37a.667.667 0 0 1-.667.667z"></path>
      <path d="M20 28.333a.665.665 0 0 1-.471-.195l-9.334-9.333a.667.667 0 0 1 .472-1.138H16V3c0-.369.299-.667.667-.667h6.666c.369 0 .667.298.667.667v14.667h5.334a.667.667 0 0 1 .47 1.138l-9.332 9.333a.665.665 0 0 1-.472.195zM12.276 19L20 26.724 27.724 19h-4.39a.666.666 0 0 1-.667-.667V3.667h-5.334v14.666a.666.666 0 0 1-.666.667h-4.39z"></path>
    </g>
    <defs>
      <clipPath id="clip0">
        <path fill="#fff" d="M0 0h40v40H0z"></path>
      </clipPath>
    </defs>
  </symbol>
  <symbol viewBox="0 0 20 20" fill="none" xmlns="http://www.w3.org/2000/svg" id="i-eye">
    <g clip-path="url(#clip0)" fill="#9E9E9E">
      <path d="M17.25 7.284c-4.016-4.016-10.55-4.016-14.567 0L0 9.967l2.75 2.749a10.27 10.27 0 0 0 7.283 3.012c2.639 0 5.276-1.004 7.285-3.012L20 10.033l-2.75-2.749zm-.41 4.954c-3.754 3.753-9.86 3.753-13.613 0L.955 9.967 3.16 7.762c3.754-3.753 9.86-3.753 13.613 0l2.272 2.271-2.206 2.205z"></path>
      <path d="M9.653 7.287a2.367 2.367 0 0 0-2.365 2.365.338.338 0 0 0 .675 0c0-.931.758-1.69 1.69-1.69a.338.338 0 0 0 0-.675z"></path>
      <path d="M9.99 5.598A4.397 4.397 0 0 0 5.6 9.99a4.397 4.397 0 0 0 4.392 4.392 4.397 4.397 0 0 0 4.391-4.392 4.397 4.397 0 0 0-4.391-4.392zm0 8.108A3.72 3.72 0 0 1 6.275 9.99a3.72 3.72 0 0 1 3.717-3.716 3.72 3.72 0 0 1 3.716 3.716 3.72 3.72 0 0 1-3.716 3.716z"></path>
    </g>
    <defs>
      <clipPath id="clip0">
        <path fill="#fff" d="M0 0h20v20H0z"></path>
      </clipPath>
    </defs>
  </symbol>
  <symbol viewBox="0 0 16 16" fill="none" xmlns="http://www.w3.org/2000/svg" id="i-facebook">
    <path d="M12 5.5H9v-2a1 1 0 0 1 1-1h1V0H9a3 3 0 0 0-3 3v2.5H4V8h2v8h3V8h2l1-2.5z" fill="#393939"></path>
  </symbol>
  <symbol viewBox="0 0 16 17" fill="none" xmlns="http://www.w3.org/2000/svg" id="i-search">
    <g clip-path="url(#clip0)">
      <path d="M15.86 15.684l-3.888-3.888a6.794 6.794 0 0 0 1.675-4.474A6.83 6.83 0 0 0 6.823.5 6.83 6.83 0 0 0 .002 7.322c0 3.76 3.062 6.822 6.822 6.822 1.71 0 3.275-.631 4.474-1.674l3.888 3.888a.482.482 0 0 0 .337.142.48.48 0 0 0 .337-.816zM.957 7.322A5.87 5.87 0 0 1 6.82 1.458a5.87 5.87 0 0 1 5.864 5.864c0 3.232-2.629 5.868-5.864 5.868A5.874 5.874 0 0 1 .957 7.322z"
        fill="#333"></path>
    </g>
    <defs>
      <clipPath id="clip0">
        <path fill="#fff" d="M0 .5h16v16H0z"></path>
      </clipPath>
    </defs>
  </symbol>
  <symbol viewBox="0 0 16 16" fill="none" xmlns="http://www.w3.org/2000/svg" id="i-telegram">
    <g clip-path="url(#clip0)">
      <path d="M6.278 10.12l-.265 3.723c.379 0 .543-.162.74-.358l1.775-1.696 3.679 2.694c.674.376 1.15.178 1.332-.621l2.414-11.315h.001c.214-.998-.36-1.388-1.018-1.143L.743 6.838c-.969.376-.954.916-.165 1.16l3.629 1.13 8.428-5.275c.397-.262.758-.117.461.146L6.278 10.12z"
        fill="#393939"></path>
    </g>
    <defs>
      <clipPath id="clip0">
        <path fill="#fff" d="M0 0h16v16H0z"></path>
      </clipPath>
    </defs>
  </symbol>
  <symbol viewBox="0 0 16 16" fill="none" xmlns="http://www.w3.org/2000/svg" id="i-twitter">
    <g clip-path="url(#clip0)">
      <path d="M16 3.039a6.839 6.839 0 0 1-1.89.518 3.262 3.262 0 0 0 1.443-1.813 6.555 6.555 0 0 1-2.08.794 3.28 3.28 0 0 0-5.674 2.243c0 .26.022.51.076.748a9.284 9.284 0 0 1-6.761-3.431 3.285 3.285 0 0 0 1.008 4.384A3.24 3.24 0 0 1 .64 6.078v.036a3.295 3.295 0 0 0 2.628 3.223 3.274 3.274 0 0 1-.86.108 2.9 2.9 0 0 1-.621-.056 3.311 3.311 0 0 0 3.065 2.285 6.59 6.59 0 0 1-4.067 1.399c-.269 0-.527-.012-.785-.045A9.234 9.234 0 0 0 5.032 14.5c6.036 0 9.336-5 9.336-9.334 0-.145-.005-.285-.012-.424A6.544 6.544 0 0 0 16 3.039z"
        fill="#393939"></path>
    </g>
    <defs>
      <clipPath id="clip0">
        <path fill="#fff" d="M0 0h16v16H0z"></path>
      </clipPath>
    </defs>
  </symbol>
  <symbol viewBox="0 0 231 231" fill="none" xmlns="http://www.w3.org/2000/svg" id="i-youtube">
    <path fill-rule="evenodd" clip-rule="evenodd" d="M194.271 37.328c13.846.78 20.646 2.83 26.911 13.976C227.708 62.435 231 81.608 231 115.377v.116c0 33.61-3.292 52.928-9.803 63.944-6.266 11.145-13.066 13.167-26.912 14.105-13.845.794-48.625 1.27-78.756 1.27-30.189 0-64.983-.476-78.814-1.284-13.817-.939-20.617-2.96-26.94-14.106C3.32 168.406 0 149.089 0 115.478v-.115c0-33.755 3.32-52.928 9.774-64.06 6.324-11.16 13.138-13.195 26.955-13.99C50.546 36.39 85.34 36 115.529 36c30.131 0 64.911.39 78.742 1.328zm-35.459 78.078L86.625 72.094v86.625l72.187-43.313z"
      fill="#393939"></path>
  </symbol>
</svg>